<svg xmlns="http://www.w3.org/2000/svg" xmlns:xlink="http://www.w3.org/1999/xlink" width="1080" zoomAndPan="magnify" viewBox="0 0 810 809.999993" height="1080" preserveAspectRatio="xMidYMid meet" version="1.0"><defs><clipPath id="9e97f8e32e"><path d="M 171 430 L 649 430 L 649 729.144531 L 171 729.144531 Z M 171 430 " clip-rule="nonzero"/></clipPath><clipPath id="8d4f9881ee"><path d="M 341 105 L 664.910156 105 L 664.910156 375.953125 L 341 375.953125 Z M 341 105 " clip-rule="nonzero"/></clipPath></defs><g clip-path="url(#9e97f8e32e)"><path fill="#ffffff" d="M 647.75 588.785156 C 647.410156 582.175781 645.671875 575.144531 642.273438 567.742188 C 614.9375 511.914062 533.140625 474.015625 468.304688 454.160156 C 466.222656 452.867188 463.246094 450.867188 462.589844 449.472656 C 461.535156 447.257812 462.933594 439.621094 462.933594 439.621094 C 462.933594 439.621094 459.21875 446.417969 457.007812 447.46875 C 454.792969 448.523438 447.15625 447.128906 447.15625 447.128906 C 447.15625 447.128906 448.527344 447.867188 450.132812 448.890625 C 446.15625 447.839844 442.285156 446.8125 438.546875 445.917969 C 442.363281 446.890625 446.3125 447.917969 450.371094 449.050781 C 452.292969 450.289062 454.476562 451.894531 455.03125 453.078125 C 456.085938 455.292969 454.6875 462.929688 454.6875 462.929688 C 454.6875 462.929688 458.402344 456.132812 460.613281 455.082031 C 462.828125 454.027344 470.464844 455.421875 470.464844 455.421875 C 470.464844 455.421875 469.859375 455.082031 468.988281 454.582031 C 533.511719 474.78125 613.4375 512.308594 640.324219 568.613281 C 641.21875 570.664062 641.984375 572.695312 642.640625 574.667969 C 640.167969 570.140625 636.875 565.664062 632.609375 561.289062 C 580.753906 511.070312 467.960938 508.488281 399.621094 515.808594 C 468.4375 508.960938 579.308594 511.675781 631.054688 562.738281 C 639.480469 571.5625 643.933594 580.777344 645.328125 589.941406 C 645.75 616.699219 622.417969 635.632812 594.921875 644.824219 C 529.375 665.894531 456.242188 657.230469 390.324219 641.691406 C 333.414062 627.023438 274.371094 605.402344 228.15625 567.925781 C 278.429688 536.535156 349.480469 521.339844 399.621094 515.808594 C 349.769531 520.917969 277.980469 536.089844 227.074219 567.085938 C 220.304688 561.554688 213.828125 555.65625 207.664062 549.414062 C 182.488281 523.210938 170.347656 486.734375 202.871094 460.820312 C 261.101562 417.289062 371.339844 429.773438 438.546875 445.941406 C 371.8125 429.351562 259.78125 416.472656 201.53125 459.136719 C 167.320312 485.628906 179.222656 524.34375 205.003906 551.863281 C 210.878906 558.023438 217.039062 563.84375 223.492188 569.324219 C 206.113281 580.382812 191.363281 593.394531 181.144531 608.613281 C 157.945312 645.140625 182.277344 677.507812 215.855469 694.652344 C 227.757812 700.628906 240.085938 705.5 252.726562 709.476562 C 249.222656 710.453125 245.851562 711.058594 245.851562 711.058594 C 245.851562 711.058594 257.253906 712.691406 259.886719 715.246094 C 262.523438 717.800781 264.523438 729.125 264.523438 729.125 C 264.523438 729.125 266.15625 717.722656 268.710938 715.085938 C 269 714.796875 269.394531 714.507812 269.871094 714.246094 C 318.929688 726.304688 371.679688 725.9375 421.191406 721.539062 C 489.398438 713.246094 561.742188 696.335938 616.492188 652.648438 C 637.453125 635.632812 652.070312 612.089844 647.75 588.785156 Z M 614.175781 649.882812 C 559.660156 691.9375 487.921875 708.582031 420.636719 716.324219 C 373.894531 720.722656 324.332031 721.40625 277.636719 711.53125 C 280.351562 710.847656 282.589844 710.453125 282.589844 710.453125 C 282.589844 710.453125 271.1875 708.820312 268.550781 706.265625 C 265.917969 703.710938 263.917969 692.386719 263.917969 692.386719 C 263.917969 692.386719 262.285156 703.789062 259.730469 706.421875 C 259.546875 706.609375 259.308594 706.792969 259.046875 706.976562 C 244.796875 702.972656 230.894531 697.890625 217.542969 691.464844 C 184.992188 675.347656 161.183594 645.167969 182.964844 609.746094 C 193.050781 594.421875 207.507812 581.359375 224.519531 570.21875 C 270.921875 609.273438 331.175781 631.578125 389.035156 646.800781 C 456.03125 662.128906 529.796875 670.765625 596.109375 648.222656 C 617.230469 640.875 635.769531 627.8125 643.695312 610.273438 C 639.246094 625.074219 628.054688 638.925781 614.175781 649.882812 Z M 614.175781 649.882812 " fill-opacity="1" fill-rule="nonzero"/></g><g clip-path="url(#8d4f9881ee)"><path fill="#ffffff" d="M 386.207031 191.683594 C 386.378906 191.851562 386.546875 192.191406 386.628906 192.445312 C 386.714844 192.78125 386.546875 193.121094 386.039062 193.203125 C 385.363281 193.375 384.605469 193.289062 383.84375 193.289062 C 379.789062 193.375 375.738281 193.375 371.683594 193.878906 C 368.898438 194.21875 366.363281 194.976562 365.351562 197.847656 C 364.929688 199.03125 364.929688 200.382812 364.675781 201.566406 C 364.335938 203.253906 364.335938 204.941406 364.335938 206.632812 C 364.335938 207.984375 364.675781 209.671875 363.40625 210.601562 C 362.816406 211.023438 362.226562 210.9375 361.71875 210.601562 C 361.042969 210.179688 361.042969 209.585938 361.042969 208.828125 C 361.128906 207.390625 361.464844 205.871094 361.71875 204.4375 C 362.308594 201.566406 362.480469 198.523438 360.03125 196.414062 C 358.933594 195.484375 357.160156 194.976562 355.808594 194.386719 C 354.542969 193.878906 353.191406 193.796875 351.753906 193.964844 C 349.472656 194.21875 347.109375 194.21875 344.828125 194.386719 C 344.070312 194.386719 341.789062 194.300781 341.367188 193.457031 C 340.945312 192.359375 342.210938 192.105469 342.972656 192.023438 C 345.421875 191.851562 347.871094 191.9375 350.320312 192.191406 C 354.203125 192.527344 359.4375 191.851562 360.789062 187.546875 C 361.382812 185.6875 361.042969 183.664062 360.875 181.71875 C 360.789062 180.453125 359.945312 176.148438 361.71875 175.640625 C 363.746094 175.046875 363.324219 178.511719 363.324219 179.609375 C 363.40625 182.058594 362.816406 184.761719 364 187.039062 C 364.929688 188.898438 366.953125 190.078125 368.980469 190.671875 C 371.769531 191.515625 374.722656 191.769531 377.679688 191.683594 C 379.875 191.601562 381.984375 191.429688 384.179688 191.347656 C 384.941406 191.261719 385.785156 191.261719 386.207031 191.683594 Z M 527.234375 237.792969 C 527.234375 237.539062 527.0625 237.199219 526.808594 237.03125 C 526.386719 236.609375 525.460938 236.609375 524.953125 236.609375 C 522.757812 236.695312 520.644531 236.863281 518.449219 236.949219 C 515.578125 237.03125 512.625 236.777344 509.753906 235.933594 C 507.726562 235.34375 505.699219 234.160156 504.769531 232.304688 C 503.585938 230.023438 504.179688 227.320312 504.09375 224.871094 C 504.09375 223.773438 504.433594 220.3125 502.488281 220.902344 C 500.714844 221.410156 501.5625 225.714844 501.644531 226.984375 C 501.8125 228.925781 502.152344 230.953125 501.5625 232.808594 C 500.210938 237.199219 494.972656 237.792969 491.089844 237.453125 C 488.640625 237.199219 486.191406 237.199219 483.742188 237.285156 C 482.984375 237.371094 481.714844 237.621094 482.136719 238.722656 C 482.476562 239.648438 484.757812 239.734375 485.601562 239.648438 C 487.878906 239.566406 490.246094 239.480469 492.523438 239.226562 C 493.960938 239.058594 495.3125 239.144531 496.578125 239.648438 C 497.929688 240.15625 499.703125 240.664062 500.800781 241.675781 C 503.25 243.789062 502.996094 246.828125 502.488281 249.699219 C 502.238281 251.132812 501.898438 252.570312 501.8125 254.089844 C 501.8125 254.851562 501.730469 255.441406 502.488281 255.863281 C 503.082031 256.199219 503.671875 256.199219 504.179688 255.863281 C 505.445312 254.933594 505.109375 253.246094 505.109375 251.894531 C 505.109375 250.207031 505.109375 248.515625 505.445312 246.828125 C 505.699219 245.644531 505.699219 244.210938 506.121094 243.113281 C 507.132812 240.324219 509.582031 239.566406 512.453125 239.144531 C 516.507812 238.636719 520.5625 238.636719 524.613281 238.550781 C 525.375 238.550781 526.050781 238.636719 526.808594 238.46875 C 527.148438 238.382812 527.234375 238.128906 527.234375 237.792969 Z M 500.125 325.109375 C 499.703125 324.855469 499.195312 324.6875 498.691406 324.601562 C 487.878906 323.25 477.324219 322.996094 467.445312 317.761719 C 458.914062 313.285156 450.976562 305.011719 449.878906 295.046875 C 449.375 290.148438 448.953125 285.164062 448.527344 280.183594 C 448.445312 278.832031 448.78125 272.414062 447.09375 271.992188 C 444.476562 271.402344 446.082031 278.324219 446.164062 279.507812 C 446.417969 282.886719 446.585938 286.347656 446.417969 289.808594 C 446.082031 295.636719 444.898438 301.546875 442.109375 306.613281 C 438.902344 312.527344 433.921875 316.578125 427.503906 318.183594 C 416.269531 320.972656 405.125 321.054688 393.722656 319.621094 C 393.300781 319.535156 392.796875 319.535156 392.457031 319.621094 C 392.203125 319.703125 391.949219 320.042969 391.78125 320.378906 C 391.613281 320.800781 391.949219 321.054688 392.371094 321.140625 C 392.796875 321.308594 393.21875 321.308594 393.640625 321.394531 C 395.328125 321.644531 397.101562 321.984375 398.789062 322.070312 C 403.265625 322.492188 407.65625 323.503906 411.964844 324.769531 C 413.652344 325.277344 415.34375 325.699219 417.03125 326.121094 C 421.253906 327.21875 425.304688 328.738281 429.191406 330.851562 C 434.257812 333.554688 439.492188 337.4375 442.449219 342.503906 C 444.476562 346.050781 445.996094 349.765625 446.332031 353.90625 C 446.671875 357.957031 446.753906 361.925781 446.839844 365.980469 C 446.839844 368.683594 446.839844 371.300781 446.753906 374.003906 C 446.753906 374.085938 446.753906 374.171875 446.753906 374.257812 C 446.671875 376.199219 448.277344 375.777344 448.699219 374.425781 C 449.289062 372.652344 448.78125 369.78125 448.867188 367.921875 C 449.035156 355.679688 451.90625 341.152344 462.632812 333.636719 C 463.308594 333.214844 463.898438 332.625 464.574219 332.203125 C 466.683594 330.683594 468.878906 329.246094 471.414062 328.488281 C 474.707031 327.472656 478 326.796875 481.378906 326.628906 C 484.164062 326.460938 487.035156 326.375 489.824219 326.375 C 492.777344 326.289062 495.734375 326.375 498.691406 326.375 C 499.113281 326.375 499.535156 326.375 499.957031 326.207031 C 500.210938 326.121094 500.464844 325.867188 500.464844 325.613281 C 500.546875 325.617188 500.378906 325.191406 500.125 325.109375 Z M 420.492188 154.359375 C 420.914062 154.527344 421.335938 154.527344 421.761719 154.613281 C 423.449219 154.867188 425.222656 155.203125 426.910156 155.289062 C 431.386719 155.710938 435.777344 156.722656 440.085938 157.992188 C 441.773438 158.496094 443.460938 158.917969 445.152344 159.34375 C 449.375 160.441406 453.425781 161.960938 457.3125 164.070312 C 462.378906 166.773438 467.613281 170.65625 470.570312 175.722656 C 472.597656 179.269531 474.117188 182.988281 474.453125 187.125 C 474.792969 191.179688 474.875 195.148438 474.960938 199.199219 C 474.960938 201.902344 474.960938 204.519531 474.875 207.222656 C 474.875 207.308594 474.875 207.390625 474.875 207.476562 C 474.792969 209.417969 476.394531 208.996094 476.820312 207.644531 C 477.410156 205.871094 476.902344 203 476.988281 201.140625 C 477.15625 188.898438 480.027344 174.375 490.75 166.859375 C 491.425781 166.433594 492.019531 165.84375 492.695312 165.421875 C 494.804688 163.902344 497 162.464844 499.535156 161.707031 C 502.828125 160.691406 506.121094 160.015625 509.5 159.847656 C 512.285156 159.679688 515.15625 159.59375 517.945312 159.59375 C 520.898438 159.511719 523.855469 159.59375 526.808594 159.59375 C 527.234375 159.59375 527.65625 159.59375 528.078125 159.425781 C 528.332031 159.34375 528.582031 159.089844 528.582031 158.835938 C 528.582031 158.582031 528.414062 158.242188 528.246094 158.160156 C 527.824219 157.90625 527.316406 157.738281 526.808594 157.652344 C 516 156.300781 505.445312 156.046875 495.566406 150.8125 C 487.035156 146.335938 479.097656 138.0625 478 128.097656 C 477.492188 123.199219 477.070312 118.21875 476.648438 113.234375 C 476.566406 111.882812 476.902344 105.464844 475.214844 105.042969 C 472.597656 104.453125 474.199219 111.375 474.285156 112.558594 C 474.539062 115.9375 474.707031 119.398438 474.539062 122.863281 C 474.285156 128.773438 473.101562 134.683594 470.316406 139.75 C 467.105469 145.660156 462.125 149.714844 455.707031 151.320312 C 444.476562 154.105469 433.328125 154.191406 421.929688 152.753906 C 421.507812 152.671875 421 152.671875 420.660156 152.753906 C 420.410156 152.839844 420.15625 153.175781 419.988281 153.515625 C 419.816406 154.023438 420.15625 154.273438 420.492188 154.359375 Z M 664.457031 240.664062 C 664.035156 240.410156 663.527344 240.242188 663.019531 240.15625 C 652.210938 238.804688 641.65625 238.550781 631.777344 233.316406 C 623.246094 228.839844 615.308594 220.566406 614.210938 210.601562 C 613.703125 205.703125 613.28125 200.71875 612.859375 195.738281 C 612.777344 194.386719 613.113281 187.96875 611.425781 187.546875 C 608.808594 186.957031 610.410156 193.878906 610.496094 195.0625 C 610.75 198.441406 610.917969 201.902344 610.75 205.363281 C 610.410156 211.191406 609.230469 217.101562 606.441406 222.167969 C 603.234375 228.082031 598.25 232.132812 591.832031 233.738281 C 580.601562 236.523438 569.457031 236.609375 558.054688 235.175781 C 557.632812 235.089844 557.125 235.089844 556.789062 235.175781 C 556.535156 235.257812 556.28125 235.597656 556.113281 235.933594 C 555.945312 236.355469 556.28125 236.609375 556.703125 236.695312 C 557.125 236.863281 557.546875 236.863281 557.96875 236.949219 C 559.660156 237.199219 561.433594 237.539062 563.121094 237.621094 C 567.597656 238.046875 571.988281 239.058594 576.296875 240.324219 C 577.984375 240.832031 579.671875 241.253906 581.363281 241.675781 C 585.585938 242.773438 589.636719 244.292969 593.523438 246.40625 C 598.589844 249.109375 603.824219 252.992188 606.78125 258.058594 C 608.808594 261.605469 610.328125 265.320312 610.664062 269.457031 C 611.003906 273.511719 611.085938 277.480469 611.171875 281.535156 C 611.171875 284.238281 611.171875 286.855469 611.085938 289.558594 C 611.085938 289.640625 611.085938 289.726562 611.085938 289.808594 C 611.003906 291.753906 612.605469 291.332031 613.027344 289.980469 C 613.621094 288.207031 613.113281 285.335938 613.199219 283.476562 C 613.367188 271.230469 616.238281 256.707031 626.960938 249.191406 C 627.636719 248.769531 628.230469 248.179688 628.90625 247.757812 C 631.015625 246.238281 633.210938 244.800781 635.746094 244.039062 C 639.039062 243.027344 642.332031 242.351562 645.710938 242.183594 C 648.496094 242.015625 651.367188 241.929688 654.152344 241.929688 C 657.109375 241.84375 660.066406 241.929688 663.019531 241.929688 C 663.441406 241.929688 663.867188 241.929688 664.289062 241.761719 C 664.539062 241.675781 664.792969 241.421875 664.792969 241.167969 C 664.878906 241.167969 664.710938 240.832031 664.457031 240.664062 Z M 540.828125 182.648438 C 538.125 181.382812 534.917969 182.988281 533.902344 185.605469 C 533.226562 187.207031 533.566406 189.234375 534.496094 190.671875 C 536.605469 193.796875 541.925781 193.878906 543.699219 190.25 C 544.964844 187.460938 543.53125 184 540.828125 182.648438 Z M 533.480469 291.753906 C 530.777344 290.484375 527.570312 292.089844 526.558594 294.707031 C 525.882812 296.3125 526.21875 298.339844 527.148438 299.773438 C 529.257812 302.898438 534.578125 302.984375 536.351562 299.351562 C 537.621094 296.566406 536.183594 293.105469 533.480469 291.753906 Z M 417.789062 248.855469 C 419.140625 246.066406 417.707031 242.605469 415.003906 241.253906 C 412.300781 239.988281 409.09375 241.59375 408.078125 244.210938 C 407.402344 245.8125 407.742188 247.839844 408.671875 249.277344 C 410.78125 252.402344 416.101562 252.484375 417.789062 248.855469 Z M 417.789062 248.855469 " fill-opacity="1" fill-rule="nonzero"/></g></svg>