<svg version="1.2" xmlns="http://www.w3.org/2000/svg" viewBox="0 0 91 89" width="91" height="89">
	<title>icone solari Outline</title>
	<style>
		.s0 { fill: #1d1d1b } 
	</style>
	<g>
		<g id="Livello_1">
			<path fill-rule="evenodd" class="s0" d="m44.2 81.4c-1.6 0-3.1-1-3.6-2.5l-3.6-9.8-8.7 5.8c-1.4 0.9-3.1 0.9-4.4 0-1.3-1-1.9-2.6-1.4-4.2l2.9-10.1-10.5-0.4c-1.6 0-3-1.1-3.5-2.7-0.5-1.6 0-3.2 1.3-4.2l8.3-6.5-8.3-6.5c-1.3-1-1.8-2.7-1.3-4.2 0.5-1.6 1.9-2.6 3.5-2.7l10.5-0.4-2.9-10.1c-0.5-1.6 0.1-3.2 1.4-4.2 1.3-1 3.1-1 4.4 0l8.7 5.9 3.6-9.8c0.6-1.5 2-2.5 3.6-2.5 1.6 0 3.1 1 3.6 2.5l3.6 9.8 8.7-5.9c1.4-0.9 3.1-0.9 4.4 0 1.3 1 1.9 2.6 1.4 4.2l-2.9 10.1 10.5 0.4c1.6 0 3 1.1 3.5 2.7 0.5 1.6 0 3.2-1.3 4.2l-8.3 6.5 8.3 6.5c1.3 1 1.8 2.7 1.3 4.2-0.5 1.6-1.9 2.6-3.5 2.7l-10.5 0.4 2.9 10.1c0.5 1.6-0.1 3.2-1.4 4.2-1.3 1-3.1 1-4.4 0l-8.7-5.9-3.6 9.8c-0.6 1.5-2 2.5-3.6 2.5zm-6.9-18.6l1.4 0.5c0.1 0 0.3 0 0.4 0.1l1.2 0.4 3.9 10.7 3.9-10.7 1.2-0.4c0.1 0 0.3 0 0.4-0.1l1.4-0.5 9.4 6.3-3.1-10.9 0.9-1.1c0-0.1 0.2-0.3 0.3-0.4l0.7-1 11.4-0.4-9-7c0 0 0-1.4 0-1.5 0-0.2 0-0.3 0-0.4v-1.2l8.9-7-11.4-0.4-0.7-1c0-0.1-0.2-0.3-0.3-0.4l-0.9-1.2 3.1-10.9-9.4 6.3-1.4-0.5c-0.1 0-0.3-0.1-0.4-0.1l-1.2-0.4-3.9-10.7-3.9 10.7-1.2 0.4c-0.1 0-0.3 0-0.4 0.1l-1.4 0.5-9.4-6.3 3.1 10.9-0.9 1.2c0 0.1-0.2 0.2-0.3 0.4l-0.7 1-11.4 0.4 8.9 7c0 0.1 0 1.4 0 1.5 0 0.2 0 0.3 0 0.4v1.2l-8.9 7 11.4 0.4 0.7 1c0 0.1 0.2 0.3 0.3 0.4l0.9 1.1-3.1 10.9 9.4-6.3z"/>
		</g>
	</g>
</svg>